<?xml version="1.0" encoding="UTF-8"?><svg id="Warstwa_1" xmlns="http://www.w3.org/2000/svg" viewBox="0 0 213.53 213.53"><defs><style>.cls-1{fill:none;stroke:#1d1d1b;stroke-miterlimit:10;stroke-width:7px;}.cls-2{fill:#1d1d1b;stroke-width:0px;}</style></defs><circle class="cls-1" cx="106.76" cy="106.76" r="103.25"/><path class="cls-2" d="M112.3,79.73c11.49-2.67,22.06-7.54,32.93-12.01l-4.43-3.37c-1.84,18.17-4.07,36.17-8.57,53.9-2.46,9.7-4.92,19.58-8.64,28.88-2.37,5.95-5.55,12.58-10.82,16.52-5.6,4.19-14.05,3.94-18.41-2.07-2.81-3.87-2.76-9.33-1.39-13.7,5.11-16.33,25.23-23.5,40.23-26.82,24.35-5.39,50.25-4.53,74.71-.45,4.41.73,6.3-6.01,1.86-6.75-25.33-4.22-51.74-5.14-76.99.14-17.73,3.71-39.18,12.11-46.05,30.56-5.21,13.98,3.58,31.18,20.3,28.84,17.14-2.4,23.61-23.5,27.64-37.48,6.8-23.61,10.65-47.15,13.13-71.56.21-2.1-2.44-4.19-4.43-3.37-10.87,4.47-21.44,9.34-32.93,12.01-4.39,1.02-2.53,7.77,1.86,6.75h0Z"/></svg>